<mxfile host="app.diagrams.net" modified="2020-04-06T10:13:29.445Z" agent="5.0 (Windows NT 10.0; Win64; x64) AppleWebKit/537.36 (KHTML, like Gecko) Chrome/80.0.3987.149 Safari/537.36" etag="gdEhSWbF21QE-y_XaV9W" version="12.9.6" type="github">
  <diagram id="JjOcFzwLPrpcrGy4seuc" name="Page-1">
    <mxGraphModel dx="1662" dy="713" grid="1" gridSize="10" guides="1" tooltips="1" connect="1" arrows="1" fold="1" page="1" pageScale="1" pageWidth="827" pageHeight="1169" math="0" shadow="0">
      <root>
        <mxCell id="0" />
        <mxCell id="1" parent="0" />
        <mxCell id="12-cRlRXb4dsILWuFh1U-1" style="edgeStyle=orthogonalEdgeStyle;rounded=0;orthogonalLoop=1;jettySize=auto;html=1;" edge="1" parent="1" source="12-cRlRXb4dsILWuFh1U-4" target="12-cRlRXb4dsILWuFh1U-6">
          <mxGeometry relative="1" as="geometry" />
        </mxCell>
        <mxCell id="12-cRlRXb4dsILWuFh1U-2" style="edgeStyle=orthogonalEdgeStyle;rounded=0;orthogonalLoop=1;jettySize=auto;html=1;exitX=0.75;exitY=1;exitDx=0;exitDy=0;entryX=0;entryY=0.5;entryDx=0;entryDy=0;" edge="1" parent="1" source="12-cRlRXb4dsILWuFh1U-4" target="12-cRlRXb4dsILWuFh1U-7">
          <mxGeometry relative="1" as="geometry" />
        </mxCell>
        <mxCell id="12-cRlRXb4dsILWuFh1U-3" style="edgeStyle=orthogonalEdgeStyle;rounded=0;orthogonalLoop=1;jettySize=auto;html=1;exitX=0.5;exitY=0;exitDx=0;exitDy=0;entryX=0;entryY=0.5;entryDx=0;entryDy=0;" edge="1" parent="1" source="12-cRlRXb4dsILWuFh1U-4" target="12-cRlRXb4dsILWuFh1U-9">
          <mxGeometry relative="1" as="geometry" />
        </mxCell>
        <mxCell id="12-cRlRXb4dsILWuFh1U-4" value="&lt;span style=&quot;color: rgb(51 , 51 , 51) ; font-family: &amp;#34;open sans&amp;#34; , &amp;#34;clear sans&amp;#34; , &amp;#34;helvetica neue&amp;#34; , &amp;#34;helvetica&amp;#34; , &amp;#34;arial&amp;#34; , sans-serif ; font-size: 16px ; text-align: left ; white-space: pre-wrap ; background-color: rgb(255 , 255 , 255)&quot;&gt;按角色，&lt;br/&gt;遍历用户列表&lt;/span&gt;" style="rounded=0;whiteSpace=wrap;html=1;" vertex="1" parent="1">
          <mxGeometry x="100" y="120" width="120" height="60" as="geometry" />
        </mxCell>
        <mxCell id="12-cRlRXb4dsILWuFh1U-5" style="edgeStyle=orthogonalEdgeStyle;rounded=0;orthogonalLoop=1;jettySize=auto;html=1;exitX=1;exitY=0.5;exitDx=0;exitDy=0;" edge="1" parent="1" source="12-cRlRXb4dsILWuFh1U-6" target="12-cRlRXb4dsILWuFh1U-10">
          <mxGeometry relative="1" as="geometry" />
        </mxCell>
        <mxCell id="12-cRlRXb4dsILWuFh1U-6" value="学校维度任务&lt;br&gt;[任务2]" style="rounded=0;whiteSpace=wrap;html=1;" vertex="1" parent="1">
          <mxGeometry x="320" y="120" width="120" height="60" as="geometry" />
        </mxCell>
        <mxCell id="12-cRlRXb4dsILWuFh1U-7" value="基础信息&amp;amp;登录相关&lt;br&gt;[任务3]" style="rounded=0;whiteSpace=wrap;html=1;" vertex="1" parent="1">
          <mxGeometry x="320" y="220" width="120" height="60" as="geometry" />
        </mxCell>
        <mxCell id="12-cRlRXb4dsILWuFh1U-8" style="edgeStyle=orthogonalEdgeStyle;rounded=0;orthogonalLoop=1;jettySize=auto;html=1;exitX=1;exitY=0.5;exitDx=0;exitDy=0;entryX=0.5;entryY=0;entryDx=0;entryDy=0;" edge="1" parent="1" source="12-cRlRXb4dsILWuFh1U-9" target="12-cRlRXb4dsILWuFh1U-10">
          <mxGeometry relative="1" as="geometry" />
        </mxCell>
        <mxCell id="12-cRlRXb4dsILWuFh1U-9" value="订单活动相关&lt;br&gt;[任务1]" style="rounded=0;whiteSpace=wrap;html=1;" vertex="1" parent="1">
          <mxGeometry x="320" y="30" width="120" height="60" as="geometry" />
        </mxCell>
        <mxCell id="12-cRlRXb4dsILWuFh1U-10" value="会员状态相关&lt;br&gt;[4]" style="rounded=0;whiteSpace=wrap;html=1;" vertex="1" parent="1">
          <mxGeometry x="500" y="120" width="120" height="60" as="geometry" />
        </mxCell>
      </root>
    </mxGraphModel>
  </diagram>
</mxfile>
